<svg width="793" height="773" viewBox="0 0 793 773" fill="none" xmlns="http://www.w3.org/2000/svg">
<path d="M389.365 540.448C392.439 544.322 404.164 550.322 426.473 543.33C448.783 536.338 457.727 525.413 459.41 520.824" stroke="black" stroke-width="5" stroke-linecap="round"/>
<path d="M369.383 531.479C367.26 535.138 367.275 542.15 384.314 540.926L389.365 540.448L398.148 539.615" stroke="black" stroke-width="5" stroke-linecap="round"/>
<path d="M370.923 517.983C366.824 518.493 359.414 521.173 362.576 527.816C363.53 529.82 366.054 530.946 369.383 531.478C377.088 532.708 389.104 530.754 395.952 529.127" stroke="black" stroke-width="5" stroke-linecap="round"/>
<path d="M452.623 495.505C446.16 489.405 432.665 477.125 420.545 476.251C417.47 476.105 410.883 474.896 409.126 471.225C406.931 466.637 396.83 471.662 403.637 480.839C410.444 490.016 418.788 486.957 413.957 494.823C410.093 501.116 386.729 504 375.531 504.656C371.579 504.729 364.245 506.71 366.528 514.051C367.094 515.869 368.694 517.135 370.923 517.984C377.696 520.565 390.275 519.299 397.269 517.984" stroke="black" stroke-width="5" stroke-linecap="round"/>
<path d="M423.454 290.74C415.234 240.913 424.556 212.879 447.596 195.71C444.874 263.313 492.43 295.363 510.408 306.664L494.998 321.047L472.766 337.484C459.924 344.676 431.263 342.108 423.454 290.74Z" fill="black"/>
<path d="M457.435 530.113C446.895 569.167 437.198 624.076 457.435 770" stroke="black" stroke-width="5" stroke-linecap="round"/>
<path d="M488.176 398.351C496.63 378.169 514.805 342.452 533.967 366.67C553.128 390.888 554.396 442.704 565.668 419.471L586.802 363.854" stroke="black" stroke-width="5" stroke-linecap="round"/>
<path d="M733.178 309.757C701.417 339.935 669.203 344.307 656.8 345.704C631.492 348.554 589.509 322.588 589.509 294.336C612.443 277.769 629.106 246.631 634.428 233.978C640.405 239.033 648.18 237.109 651.321 235.515C655.358 232.887 663.103 222.996 661.783 204.457C660.463 185.918 647.002 190.895 640.437 195.701L607.635 199.236C609.014 168.584 590.121 158.356 580.502 157.074C588.061 140.094 574.539 132.665 567.424 129.747C557.217 142.256 543.84 147.296 538.184 149.64C480.617 164.7 445.479 144.081 429.26 118.348C411.654 92.3709 414.504 31.3702 464.311 16.5203C480.597 10.2532 519.207 5.11479 543.358 34.6972C614.456 8.56951 648.105 83.3461 657.336 110.5L668.005 135.258C760.656 154.967 768.811 242.599 752.537 280.977C745.158 298.378 744.187 299.3 733.667 309.294L733.178 309.757Z" fill="black"/>
<path d="M523.293 329.688C507.37 330.715 445.541 358.546 456.329 491.59" stroke="black" stroke-width="5" stroke-linecap="round"/>
<path d="M563.36 329.685C634.761 317.87 654.934 375.241 662.824 401.693C677.248 447.335 662.824 545.523 462.729 516.068C451.192 514.37 445.542 498.866 468.141 484.009C491.777 468.472 516.942 458.712 547.254 452.548" stroke="black" stroke-width="5" stroke-linecap="round"/>
<path d="M458.4 528.24C477.784 547.04 543.641 574.957 652.002 536.227C654.299 531.314 655.494 499.787 652.002 489.626" stroke="black" stroke-width="5" stroke-linecap="round"/>
<path d="M607.654 199.746C603.944 220.868 585.725 234.833 567.407 231.615C549.09 228.398 536.721 209.059 540.432 187.937C544.142 166.816 562.362 152.85 580.679 156.068C598.996 159.286 611.365 178.624 607.654 199.746Z" stroke="black" stroke-width="5"/>
<path d="M518.05 196.878C514.34 218 496.12 231.965 477.803 228.747C459.486 225.529 447.117 206.191 450.827 185.069C454.538 163.947 472.757 149.982 491.074 153.2C509.391 156.417 521.76 175.756 518.05 196.878Z" stroke="black" stroke-width="5"/>
<path d="M518.614 188.944L540.845 190.319" stroke="black" stroke-width="5" stroke-linecap="round"/>
<path d="M531.05 210.604C524.535 227.337 511.212 241.302 525.941 251.899" stroke="black" stroke-width="5" stroke-linecap="round"/>
<path d="M510.497 273.992C514.958 278.923 527.401 285.825 541.488 273.992" stroke="black" stroke-width="5" stroke-linecap="round"/>
<circle cx="478.337" cy="205.904" r="9.24616" transform="rotate(9.96339 478.337 205.904)" fill="black"/>
<circle cx="564.634" cy="203.849" r="9.24616" transform="rotate(9.96339 564.634 203.849)" fill="black"/>
<path d="M648.72 208.39C649.851 211.449 650.947 218.507 646.282 222.264" stroke="black" stroke-width="5" stroke-linecap="round"/>
<path d="M459.889 147.537C446.62 172.858 434.686 234.724 487.672 288.084C540.658 341.444 597.459 291.398 619.236 259.706L634.638 233.091C641.035 238.744 655.064 243.83 660.006 218.954C664.948 194.077 655.197 190.696 649.703 192.114C646.725 192.783 640.199 195.737 637.919 202.201" stroke="black" stroke-width="5" stroke-linecap="round"/>
<path d="M607.585 198.303L643.977 194.684" stroke="black" stroke-width="5" stroke-linecap="round"/>
<path d="M574.855 180.823C580.601 181.641 592.042 186.243 591.844 198.1" stroke="black" stroke-width="5" stroke-linecap="round"/>
<path d="M465.386 185.459C469.77 183.532 480.489 181.235 488.295 187.461" stroke="black" stroke-width="5" stroke-linecap="round"/>
<path d="M570.364 328.55V304.096" stroke="black" stroke-width="5" stroke-linecap="round"/>
<path d="M516.942 309.098V330.808" stroke="black" stroke-width="5" stroke-linecap="round"/>
<path d="M471.744 696.6C503.074 704.013 580.185 714.393 637.983 696.6" stroke="black" stroke-width="5" stroke-linecap="round"/>
<path d="M471.744 629.238C496.294 635.593 559.283 644.49 614.836 629.238" stroke="black" stroke-width="5" stroke-linecap="round"/>
<path d="M567.139 610.175L589.884 754.076" stroke="black" stroke-width="5" stroke-linecap="round"/>
<path d="M494.189 566.963L511.805 750.481" stroke="black" stroke-width="5" stroke-linecap="round"/>
<path d="M191.271 275.724C157.163 300.38 159.252 404.143 164.56 452.942H153.259C136.822 350.207 156.684 296.442 168.67 282.401L191.271 275.724Z" fill="black"/>
<path d="M71.0713 310.654C37.0258 331.809 39.1109 420.834 44.4092 462.702H33.129C16.7216 374.559 36.5473 328.43 48.511 316.384L71.0713 310.654Z" fill="black"/>
<path d="M6.3483 456.538C0.526643 410.479 2.2389 327.606 49.4971 315.277" stroke="black" stroke-width="5" stroke-linecap="round"/>
<path d="M49.4971 315.277L241.098 261.854" stroke="black" stroke-width="5" stroke-linecap="round"/>
<path d="M4.20277 464.184L171.716 453.524C172.292 453.487 172.779 453.944 172.779 454.522V471.518C172.779 472.048 172.366 472.486 171.837 472.516L4.32376 482.161C3.74983 482.194 3.26628 481.738 3.26628 481.163V465.182C3.26628 464.654 3.67621 464.217 4.20277 464.184Z" stroke="black" stroke-width="5" stroke-linecap="round"/>
<path d="M123.466 476.058V546.945" stroke="black" stroke-width="5" stroke-linecap="round"/>
<path d="M157.369 474.516V523.315" stroke="black" stroke-width="5" stroke-linecap="round"/>
<path d="M413.686 501.155C391.114 517.072 242.968 475.817 173.806 453.97L315.067 459.62C362.38 465.472 436.257 485.238 413.686 501.155Z" fill="black" stroke="black" stroke-width="5" stroke-linecap="round"/>
<path d="M172.779 470.921C205.902 488.265 281.734 520.334 360.785 525.491" stroke="black" stroke-width="5" stroke-linecap="round"/>
<path d="M192.813 449.86C184.936 381.713 187.162 248.705 259.077 261.855C274.145 264.423 306.335 281.272 314.554 328.119C318.15 346.138 323.184 396.866 314.554 455.63" stroke="black" stroke-width="5" stroke-linecap="round"/>
<path d="M258.563 267.111C192.337 254.945 190.134 381.758 197.156 446.458C197.315 447.922 198.516 449.003 199.987 449.07L307.218 453.966C308.757 454.036 310.102 452.925 310.314 451.398C317.843 397.325 313.707 346.667 310.407 330.054C302.74 286.148 272.619 269.519 258.563 267.111Z" fill="black"/>
<path d="M474.347 369.847C406.858 388.934 374.543 399.242 369.225 422.514C367.496 430.07 371.809 434.487 384.658 438.705C408.25 446.449 438.059 445.409 454.273 445.871" stroke="black" stroke-width="5" stroke-linecap="round"/>
<path d="M329.707 449.57C331.068 457.865 344.102 455.545 363.602 446.736C375.837 441.21 371.61 442.173 378.683 440.318" stroke="black" stroke-width="5" stroke-linecap="round"/>
<path d="M310.333 444.254C308.973 447.944 310.048 454.409 325.226 450.759L329.707 449.57L337.501 447.502" stroke="black" stroke-width="5" stroke-linecap="round"/>
<path d="M309.678 431.58C306.059 432.657 299.784 436.226 303.641 441.885C304.804 443.592 307.251 444.258 310.333 444.255C317.466 444.25 328.004 440.669 333.933 438.154" stroke="black" stroke-width="5" stroke-linecap="round"/>
<path d="M379.94 398.753C373.189 394.083 363.074 386.231 352.013 387.219C349.219 387.54 341.424 384.482 337.046 382.796C332.667 381.11 326.025 385.019 333.552 392.476C341.078 399.933 348.139 395.877 344.974 403.847C342.442 410.224 321.814 416.342 311.816 418.604C308.263 419.256 301.95 422.169 305.121 428.602C305.906 430.195 307.54 431.126 309.679 431.58C316.177 432.958 327.327 429.929 333.434 427.68" stroke="black" stroke-width="5" stroke-linecap="round"/>
</svg>
